<svg width="23" height="24" viewBox="0 0 23 24" fill="none" xmlns="http://www.w3.org/2000/svg">
<path d="M4.5 13.5C5.32843 13.5 6 12.8284 6 12C6 11.1716 5.32843 10.5 4.5 10.5C3.67157 10.5 3 11.1716 3 12C3 12.8284 3.67157 13.5 4.5 13.5Z" fill="#285D9A"/>
<path d="M11.5 13.5C12.3284 13.5 13 12.8284 13 12C13 11.1716 12.3284 10.5 11.5 10.5C10.6716 10.5 10 11.1716 10 12C10 12.8284 10.6716 13.5 11.5 13.5Z" fill="#285D9A"/>
<path d="M18.5 13.5C19.3284 13.5 20 12.8284 20 12C20 11.1716 19.3284 10.5 18.5 10.5C17.6716 10.5 17 11.1716 17 12C17 12.8284 17.6716 13.5 18.5 13.5Z" fill="#285D9A"/>
</svg>
