<svg width="8" height="6" viewBox="0 0 8 6" fill="none" xmlns="http://www.w3.org/2000/svg">
<path fill-rule="evenodd" clip-rule="evenodd" d="M0.464524 3.65013C0.0739998 4.04065 0.0739998 4.67382 0.464524 5.06434C0.855048 5.45487 1.48821 5.45487 1.87874 5.06434L4.00003 2.94305L6.12135 5.06437C6.51188 5.45489 7.14504 5.45489 7.53557 5.06437C7.92609 4.67384 7.92609 4.04068 7.53557 3.65016L4.71325 0.827837C4.71123 0.825785 4.7092 0.82374 4.70716 0.821702C4.32274 0.437279 3.7032 0.431273 3.31143 0.803682C3.30521 0.809593 3.29905 0.8156 3.29295 0.821702C3.29294 0.82171 3.29293 0.821719 3.29293 0.821728C3.29286 0.821797 3.29279 0.821866 3.29272 0.821935L0.464524 3.65013Z" fill="black" fill-opacity="0.85"/>
</svg>
